<svg width="124" height="18" viewBox="0 0 124 18" fill="none" xmlns="http://www.w3.org/2000/svg">
<path d="M0.585227 14H2.17045V8.88636H5.03409C5.14915 8.88636 5.25781 8.88636 5.36648 8.87997L8.12784 14H9.96875L7.00923 8.59233C8.67756 8.02344 9.45739 6.66193 9.45739 4.9233C9.45739 2.60938 8.0767 0.909091 5.00852 0.909091H0.585227V14ZM2.17045 7.45455V2.31534H4.95739C7.07955 2.31534 7.89773 3.35085 7.89773 4.9233C7.89773 6.49574 7.07955 7.45455 4.98295 7.45455H2.17045ZM15.9054 14.2045C17.8997 14.2045 19.3571 13.2074 19.8173 11.7244L18.3599 11.3153C17.9764 12.3381 17.0879 12.8494 15.9054 12.8494C14.1348 12.8494 12.9139 11.7053 12.8436 9.60227H19.9707V8.96307C19.9707 5.30682 17.7974 4.05398 15.752 4.05398C13.0929 4.05398 11.3287 6.15057 11.3287 9.16761C11.3287 12.1847 13.0673 14.2045 15.9054 14.2045ZM12.8436 8.2983C12.9458 6.7706 14.0261 5.40909 15.752 5.40909C17.3883 5.40909 18.4366 6.63636 18.4366 8.2983H12.8436ZM25.1547 14.2301C26.8677 14.2301 27.7626 13.3097 28.0694 12.6705H28.1461V14H29.6547V7.53125C29.6547 4.41193 27.2768 4.05398 26.024 4.05398C24.541 4.05398 22.8535 4.56534 22.0865 6.35511L23.5183 6.86648C23.8507 6.15057 24.6369 5.38352 26.0751 5.38352C27.4622 5.38352 28.1461 6.11861 28.1461 7.37784V7.42898C28.1461 8.15767 27.4047 8.09375 25.6149 8.32386C23.7931 8.56037 21.8052 8.96307 21.8052 11.2131C21.8052 13.1307 23.2882 14.2301 25.1547 14.2301ZM25.3848 12.875C24.1831 12.875 23.3137 12.3381 23.3137 11.2898C23.3137 10.1392 24.362 9.78125 25.5382 9.62784C26.1774 9.55114 27.8904 9.37216 28.1461 9.06534V10.446C28.1461 11.6733 27.1745 12.875 25.3848 12.875ZM33.9165 0.909091H32.408V14H33.9165V0.909091ZM38.9039 14H40.3869L42.5346 6.45739H42.688L44.8358 14H46.3187L49.3102 4.18182H47.725L45.6028 11.6733H45.5005L43.4295 4.18182H41.8187L39.7221 11.6989H39.6199L37.4977 4.18182H35.9125L38.9039 14ZM54.9592 14.2045C57.6183 14.2045 59.408 12.1847 59.408 9.14205C59.408 6.07386 57.6183 4.05398 54.9592 4.05398C52.3001 4.05398 50.5103 6.07386 50.5103 9.14205C50.5103 12.1847 52.3001 14.2045 54.9592 14.2045ZM54.9592 12.8494C52.9393 12.8494 52.0188 11.1108 52.0188 9.14205C52.0188 7.1733 52.9393 5.40909 54.9592 5.40909C56.979 5.40909 57.8995 7.1733 57.8995 9.14205C57.8995 11.1108 56.979 12.8494 54.9592 12.8494ZM61.7108 14H63.2193V7.78693C63.2193 6.45739 64.2676 5.4858 65.6994 5.4858C66.1021 5.4858 66.5176 5.5625 66.6199 5.58807V4.05398C66.4473 4.04119 66.051 4.02841 65.8272 4.02841C64.6511 4.02841 63.6284 4.69318 63.2704 5.66477H63.1681V4.18182H61.7108V14ZM69.9165 0.909091H68.408V14H69.9165V0.909091ZM76.3869 14.2045C78.2789 14.2045 78.9181 13.0284 79.2505 12.4915H79.4295V14H80.8869V0.909091H79.3784V5.74148H79.2505C78.9181 5.23011 78.3301 4.05398 76.4125 4.05398C73.9324 4.05398 72.2193 6.02273 72.2193 9.11648C72.2193 12.2358 73.9324 14.2045 76.3869 14.2045ZM76.5914 12.8494C74.6994 12.8494 73.7278 11.1875 73.7278 9.09091C73.7278 7.01989 74.6738 5.40909 76.5914 5.40909C78.4324 5.40909 79.4039 6.89205 79.4039 9.09091C79.4039 11.3153 78.4068 12.8494 76.5914 12.8494ZM89.1262 14H93.8564C96.9501 14 98.2285 12.4915 98.2285 10.5227C98.2285 8.4517 96.7967 7.3267 95.595 7.25V7.12216C96.72 6.81534 97.7172 6.07386 97.7172 4.38636C97.7172 2.46875 96.4387 0.909091 93.7029 0.909091H89.1262V14ZM90.7115 12.5938V8.04261H93.9331C95.6461 8.04261 96.72 9.19318 96.72 10.5227C96.72 11.6733 95.9274 12.5938 93.8564 12.5938H90.7115ZM90.7115 6.66193V2.31534H93.7029C95.4416 2.31534 96.2086 3.2358 96.2086 4.38636C96.2086 5.76705 95.0836 6.66193 93.6518 6.66193H90.7115ZM102.137 0.909091H100.629V14H102.137V0.909091ZM108.889 14.2045C111.548 14.2045 113.338 12.1847 113.338 9.14205C113.338 6.07386 111.548 4.05398 108.889 4.05398C106.23 4.05398 104.44 6.07386 104.44 9.14205C104.44 12.1847 106.23 14.2045 108.889 14.2045ZM108.889 12.8494C106.869 12.8494 105.949 11.1108 105.949 9.14205C105.949 7.1733 106.869 5.40909 108.889 5.40909C110.909 5.40909 111.829 7.1733 111.829 9.14205C111.829 11.1108 110.909 12.8494 108.889 12.8494ZM119.604 17.8864C121.956 17.8864 123.848 16.8125 123.848 14.2812V4.18182H122.39V5.74148H122.237C121.905 5.23011 121.291 4.05398 119.373 4.05398C116.893 4.05398 115.18 6.02273 115.18 9.03977C115.18 12.108 116.97 13.8466 119.348 13.8466C121.265 13.8466 121.879 12.7216 122.211 12.1847H122.339V14.179C122.339 15.8153 121.189 16.5568 119.604 16.5568C117.82 16.5568 117.194 15.6172 116.791 15.0739L115.589 15.9176C116.203 16.9467 117.411 17.8864 119.604 17.8864ZM119.552 12.4915C117.66 12.4915 116.689 11.0597 116.689 9.0142C116.689 7.01989 117.635 5.40909 119.552 5.40909C121.393 5.40909 122.365 6.89205 122.365 9.0142C122.365 11.1875 121.368 12.4915 119.552 12.4915Z" fill="black" fill-opacity="0.85"/>
</svg>
